<svg xmlns="http://www.w3.org/2000/svg" viewBox="0 0 1024 1024" role="img" aria-label="DMGForge app icon">
  <defs>
    <linearGradient id="background" x1="512" y1="0" x2="512" y2="1024" gradientUnits="userSpaceOnUse">
      <stop offset="0" stop-color="#08B7F0"/>
      <stop offset="0.46" stop-color="#098FE8"/>
      <stop offset="1" stop-color="#075CE7"/>
    </linearGradient>
    <radialGradient id="glow" cx="512" cy="220" r="720" gradientUnits="userSpaceOnUse">
      <stop offset="0" stop-color="#3BD8FF" stop-opacity="0.7"/>
      <stop offset="0.55" stop-color="#0A94EA" stop-opacity="0.1"/>
      <stop offset="1" stop-color="#075CE7" stop-opacity="0"/>
    </radialGradient>
    <filter id="softShadow" x="-20%" y="-20%" width="140%" height="140%">
      <feDropShadow dx="0" dy="28" stdDeviation="22" flood-color="#003D91" flood-opacity="0.45"/>
    </filter>
    <linearGradient id="stroke" x1="300" y1="130" x2="760" y2="890" gradientUnits="userSpaceOnUse">
      <stop offset="0" stop-color="#FFFFFF"/>
      <stop offset="0.55" stop-color="#F8FBFF"/>
      <stop offset="1" stop-color="#EAF5FF"/>
    </linearGradient>
  </defs>
  <rect width="1024" height="1024" rx="190" fill="url(#background)"/>
  <rect width="1024" height="1024" rx="190" fill="url(#glow)"/>
  <g transform="translate(92 92) scale(0.82)">
    <g filter="url(#softShadow)" fill="none" stroke="url(#stroke)" stroke-width="72" stroke-linecap="round" stroke-linejoin="round">
      <path d="M488 164H608L784 340L850 274L930 354L864 420L944 500V612L894 662"/>
      <path d="M536 860H416L240 684L174 750L94 670L160 604L80 524V412L130 362"/>
      <path d="M318 640L534 424"/>
      <path d="M706 384L490 600"/>
    </g>
    <rect x="810" y="302" width="78" height="78" rx="14" transform="rotate(45 849 341)" fill="#0A91E8"/>
    <rect x="136" y="644" width="78" height="78" rx="14" transform="rotate(45 175 683)" fill="#0870E7"/>
  </g>
</svg>